<svg id="my-svg" width="100%" xmlns="http://www.w3.org/2000/svg" xmlns:xlink="http://www.w3.org/1999/xlink" class="statediagram" style="max-width: 1417.49px; background-color: transparent;" viewBox="0 0 1417.48828125 1234" role="graphics-document document" aria-roledescription="stateDiagram"><style>#my-svg{font-family:"trebuchet ms",verdana,arial,sans-serif;font-size:16px;fill:#333;}@keyframes edge-animation-frame{from{stroke-dashoffset:0;}}@keyframes dash{to{stroke-dashoffset:0;}}#my-svg .edge-animation-slow{stroke-dasharray:9,5!important;stroke-dashoffset:900;animation:dash 50s linear infinite;stroke-linecap:round;}#my-svg .edge-animation-fast{stroke-dasharray:9,5!important;stroke-dashoffset:900;animation:dash 20s linear infinite;stroke-linecap:round;}#my-svg .error-icon{fill:#552222;}#my-svg .error-text{fill:#552222;stroke:#552222;}#my-svg .edge-thickness-normal{stroke-width:1px;}#my-svg .edge-thickness-thick{stroke-width:3.5px;}#my-svg .edge-pattern-solid{stroke-dasharray:0;}#my-svg .edge-thickness-invisible{stroke-width:0;fill:none;}#my-svg .edge-pattern-dashed{stroke-dasharray:3;}#my-svg .edge-pattern-dotted{stroke-dasharray:2;}#my-svg .marker{fill:#333333;stroke:#333333;}#my-svg .marker.cross{stroke:#333333;}#my-svg svg{font-family:"trebuchet ms",verdana,arial,sans-serif;font-size:16px;}#my-svg p{margin:0;}#my-svg defs [id$="-barbEnd"]{fill:#333333;stroke:#333333;}#my-svg g.stateGroup text{fill:#9370DB;stroke:none;font-size:10px;}#my-svg g.stateGroup text{fill:#333;stroke:none;font-size:10px;}#my-svg g.stateGroup .state-title{font-weight:bolder;fill:#131300;}#my-svg g.stateGroup rect{fill:#ECECFF;stroke:#9370DB;}#my-svg g.stateGroup line{stroke:#333333;stroke-width:1;}#my-svg .transition{stroke:#333333;stroke-width:1;fill:none;}#my-svg .stateGroup .composit{fill:white;border-bottom:1px;}#my-svg .stateGroup .alt-composit{fill:#e0e0e0;border-bottom:1px;}#my-svg .state-note{stroke:#aaaa33;fill:#fff5ad;}#my-svg .state-note text{fill:black;stroke:none;font-size:10px;}#my-svg .stateLabel .box{stroke:none;stroke-width:0;fill:#ECECFF;opacity:0.5;}#my-svg .edgeLabel .label rect{fill:#ECECFF;opacity:0.5;}#my-svg .edgeLabel{background-color:rgba(232,232,232, 0.8);text-align:center;}#my-svg .edgeLabel p{background-color:rgba(232,232,232, 0.8);}#my-svg .edgeLabel rect{opacity:0.5;background-color:rgba(232,232,232, 0.8);fill:rgba(232,232,232, 0.8);}#my-svg .edgeLabel .label text{fill:#333;}#my-svg .label div .edgeLabel{color:#333;}#my-svg .stateLabel text{fill:#131300;font-size:10px;font-weight:bold;}#my-svg .node circle.state-start{fill:#333333;stroke:#333333;}#my-svg .node .fork-join{fill:#333333;stroke:#333333;}#my-svg .node circle.state-end{fill:#9370DB;stroke:white;stroke-width:1.5;}#my-svg .end-state-inner{fill:white;stroke-width:1.5;}#my-svg .node rect{fill:#ECECFF;stroke:#9370DB;stroke-width:1px;}#my-svg .node polygon{fill:#ECECFF;stroke:#9370DB;stroke-width:1px;}#my-svg [id$="-barbEnd"]{fill:#333333;}#my-svg .statediagram-cluster rect{fill:#ECECFF;stroke:#9370DB;stroke-width:1px;}#my-svg .cluster-label,#my-svg .nodeLabel{color:#131300;}#my-svg .statediagram-cluster rect.outer{rx:5px;ry:5px;}#my-svg .statediagram-state .divider{stroke:#9370DB;}#my-svg .statediagram-state .title-state{rx:5px;ry:5px;}#my-svg .statediagram-cluster.statediagram-cluster .inner{fill:white;}#my-svg .statediagram-cluster.statediagram-cluster-alt .inner{fill:#f0f0f0;}#my-svg .statediagram-cluster .inner{rx:0;ry:0;}#my-svg .statediagram-state rect.basic{rx:5px;ry:5px;}#my-svg .statediagram-state rect.divider{stroke-dasharray:10,10;fill:#f0f0f0;}#my-svg .note-edge{stroke-dasharray:5;}#my-svg .statediagram-note rect{fill:#fff5ad;stroke:#aaaa33;stroke-width:1px;rx:0;ry:0;}#my-svg .statediagram-note rect{fill:#fff5ad;stroke:#aaaa33;stroke-width:1px;rx:0;ry:0;}#my-svg .statediagram-note text{fill:black;}#my-svg .statediagram-note .nodeLabel{color:black;}#my-svg .statediagram .edgeLabel{color:red;}#my-svg [id$="-dependencyStart"],#my-svg [id$="-dependencyEnd"]{fill:#333333;stroke:#333333;stroke-width:1;}#my-svg .statediagramTitleText{text-anchor:middle;font-size:18px;fill:#333;}#my-svg [data-look="neo"].statediagram-cluster rect{fill:#ECECFF;stroke:#9370DB;stroke-width:1;}#my-svg [data-look="neo"].statediagram-cluster rect.outer{rx:5px;ry:5px;filter:drop-shadow(1px 2px 2px rgba(185, 185, 185, 1));}#my-svg .node .neo-node{stroke:#9370DB;}#my-svg [data-look="neo"].node rect,#my-svg [data-look="neo"].cluster rect,#my-svg [data-look="neo"].node polygon{stroke:#9370DB;filter:drop-shadow(1px 2px 2px rgba(185, 185, 185, 1));}#my-svg [data-look="neo"].swimlane.cluster rect{filter:none;}#my-svg [data-look="neo"].node path{stroke:#9370DB;stroke-width:1px;}#my-svg [data-look="neo"].node .outer-path{filter:drop-shadow(1px 2px 2px rgba(185, 185, 185, 1));}#my-svg [data-look="neo"].node .neo-line path{stroke:#9370DB;filter:none;}#my-svg [data-look="neo"].node circle{stroke:#9370DB;filter:drop-shadow(1px 2px 2px rgba(185, 185, 185, 1));}#my-svg [data-look="neo"].node circle .state-start{fill:#000000;}#my-svg [data-look="neo"].icon-shape .icon{fill:#9370DB;filter:drop-shadow(1px 2px 2px rgba(185, 185, 185, 1));}#my-svg [data-look="neo"].icon-shape .icon-neo path{stroke:#9370DB;filter:drop-shadow(1px 2px 2px rgba(185, 185, 185, 1));}#my-svg :root{--mermaid-font-family:"trebuchet ms",verdana,arial,sans-serif;}</style><g><defs><marker id="my-svg_stateDiagram-barbEnd" refX="19" refY="7" markerWidth="20" markerHeight="14" markerUnits="userSpaceOnUse" orient="auto"><path d="M 19,7 L9,13 L14,7 L9,1 Z"/></marker></defs><g class="root"><g class="clusters"/><g class="edgePaths"><path d="M739.996,22L739.996,26.167C739.996,30.333,739.996,38.667,739.996,47C739.996,55.333,739.996,63.667,739.996,67.833L739.996,72" id="my-svg-edge0" class="edge-thickness-normal edge-pattern-solid transition" style="fill:none;;;fill:none" data-edge="true" data-et="edge" data-id="edge0" data-points="W3sieCI6NzM5Ljk5NjA5Mzc1LCJ5IjoyMn0seyJ4Ijo3MzkuOTk2MDkzNzUsInkiOjQ3fSx7IngiOjczOS45OTYwOTM3NSwieSI6NzJ9XQ==" data-look="classic" marker-end="url(#my-svg_stateDiagram-barbEnd)"/><path d="M739.996,112L739.996,116.167C739.996,120.333,739.996,128.667,739.996,137C739.996,145.333,739.996,153.667,739.996,157.833L739.996,162" id="my-svg-edge1" class="edge-thickness-normal edge-pattern-solid transition" style="fill:none;;;fill:none" data-edge="true" data-et="edge" data-id="edge1" data-points="W3sieCI6NzM5Ljk5NjA5Mzc1LCJ5IjoxMTJ9LHsieCI6NzM5Ljk5NjA5Mzc1LCJ5IjoxMzd9LHsieCI6NzM5Ljk5NjA5Mzc1LCJ5IjoxNjJ9XQ==" data-look="classic" marker-end="url(#my-svg_stateDiagram-barbEnd)"/><path d="M695.471,226L684.108,234.167C672.745,242.333,650.019,258.667,638.656,275C627.293,291.333,627.293,307.667,627.293,315.833L627.293,324" id="my-svg-edge2" class="edge-thickness-normal edge-pattern-solid transition" style="fill:none;;;fill:none" data-edge="true" data-et="edge" data-id="edge2" data-points="W3sieCI6Njk1LjQ3MTQwMjM5MTk3NTMsInkiOjIyNn0seyJ4Ijo2MjcuMjkyOTY4NzUsInkiOjI3NX0seyJ4Ijo2MjcuMjkyOTY4NzUsInkiOjMyNH1d" data-look="classic" marker-end="url(#my-svg_stateDiagram-barbEnd)"/><path d="M847.996,209.361L924.911,220.301C1001.827,231.241,1155.658,253.12,1232.573,275.56C1309.488,298,1309.488,321,1309.488,342C1309.488,363,1309.488,382,1309.488,401C1309.488,420,1309.488,439,1309.488,456C1309.488,473,1309.488,488,1309.488,503C1309.488,518,1309.488,533,1309.488,548C1309.488,563,1309.488,578,1309.488,595C1309.488,612,1309.488,631,1309.488,652C1309.488,673,1309.488,696,1309.488,717C1309.488,738,1309.488,757,1309.488,774C1309.488,791,1309.488,806,1309.488,821C1309.488,836,1309.488,851,1309.488,870C1309.488,889,1309.488,912,1309.488,937C1309.488,962,1309.488,989,1309.488,1012C1309.488,1035,1309.488,1054,1309.488,1069.667C1309.488,1085.333,1309.488,1097.667,1309.488,1103.833L1309.488,1110" id="my-svg-edge3" class="edge-thickness-normal edge-pattern-solid transition" style="fill:none;;;fill:none" data-edge="true" data-et="edge" data-id="edge3" data-points="W3sieCI6ODQ3Ljk5NjA5Mzc1LCJ5IjoyMDkuMzYxMDUzNTcwMjAzNzJ9LHsieCI6MTMwOS40ODgyODEyNSwieSI6Mjc1fSx7IngiOjEzMDkuNDg4MjgxMjUsInkiOjM0NH0seyJ4IjoxMzA5LjQ4ODI4MTI1LCJ5Ijo0MDF9LHsieCI6MTMwOS40ODgyODEyNSwieSI6NDU4fSx7IngiOjEzMDkuNDg4MjgxMjUsInkiOjUwM30seyJ4IjoxMzA5LjQ4ODI4MTI1LCJ5Ijo1NDh9LHsieCI6MTMwOS40ODgyODEyNSwieSI6NTkzfSx7IngiOjEzMDkuNDg4MjgxMjUsInkiOjY1MH0seyJ4IjoxMzA5LjQ4ODI4MTI1LCJ5Ijo3MTl9LHsieCI6MTMwOS40ODgyODEyNSwieSI6Nzc2fSx7IngiOjEzMDkuNDg4MjgxMjUsInkiOjgyMX0seyJ4IjoxMzA5LjQ4ODI4MTI1LCJ5Ijo4NjZ9LHsieCI6MTMwOS40ODgyODEyNSwieSI6OTM1fSx7IngiOjEzMDkuNDg4MjgxMjUsInkiOjEwMTZ9LHsieCI6MTMwOS40ODgyODEyNSwieSI6MTA3M30seyJ4IjoxMzA5LjQ4ODI4MTI1LCJ5IjoxMTEwfV0=" data-look="classic" marker-end="url(#my-svg_stateDiagram-barbEnd)"/><path d="M538.051,363.401L509.227,369.668C480.402,375.934,422.754,388.467,393.93,400.9C365.105,413.333,365.105,425.667,365.105,431.833L365.105,438" id="my-svg-edge4" class="edge-thickness-normal edge-pattern-solid transition" style="fill:none;;;fill:none" data-edge="true" data-et="edge" data-id="edge4" data-points="W3sieCI6NTM4LjA1MDc4MTI1LCJ5IjozNjMuNDAxNDAwNDc2NzU4MDZ9LHsieCI6MzY1LjEwNTQ2ODc1LCJ5Ijo0MDF9LHsieCI6MzY1LjEwNTQ2ODc1LCJ5Ijo0Mzh9XQ==" data-look="classic" marker-end="url(#my-svg_stateDiagram-barbEnd)"/><path d="M716.535,355.136L777.793,362.78C839.051,370.424,961.566,385.712,1022.824,402.856C1084.082,420,1084.082,439,1084.082,456C1084.082,473,1084.082,488,1084.082,503C1084.082,518,1084.082,533,1084.082,548C1084.082,563,1084.082,578,1084.082,595C1084.082,612,1084.082,631,1084.082,652C1084.082,673,1084.082,696,1084.082,717C1084.082,738,1084.082,757,1084.082,774C1084.082,791,1084.082,806,1084.082,821C1084.082,836,1084.082,851,1084.082,870C1084.082,889,1084.082,912,1084.082,937C1084.082,962,1084.082,989,1084.082,1012C1084.082,1035,1084.082,1054,1084.082,1067.667C1084.082,1081.333,1084.082,1089.667,1084.082,1093.833L1084.082,1098" id="my-svg-edge5" class="edge-thickness-normal edge-pattern-solid transition" style="fill:none;;;fill:none" data-edge="true" data-et="edge" data-id="edge5" data-points="W3sieCI6NzE2LjUzNTE1NjI1LCJ5IjozNTUuMTM2MDAzNjk0MjY1MzZ9LHsieCI6MTA4NC4wODIwMzEyNSwieSI6NDAxfSx7IngiOjEwODQuMDgyMDMxMjUsInkiOjQ1OH0seyJ4IjoxMDg0LjA4MjAzMTI1LCJ5Ijo1MDN9LHsieCI6MTA4NC4wODIwMzEyNSwieSI6NTQ4fSx7IngiOjEwODQuMDgyMDMxMjUsInkiOjU5M30seyJ4IjoxMDg0LjA4MjAzMTI1LCJ5Ijo2NTB9LHsieCI6MTA4NC4wODIwMzEyNSwieSI6NzE5fSx7IngiOjEwODQuMDgyMDMxMjUsInkiOjc3Nn0seyJ4IjoxMDg0LjA4MjAzMTI1LCJ5Ijo4MjF9LHsieCI6MTA4NC4wODIwMzEyNSwieSI6ODY2fSx7IngiOjEwODQuMDgyMDMxMjUsInkiOjkzNX0seyJ4IjoxMDg0LjA4MjAzMTI1LCJ5IjoxMDE2fSx7IngiOjEwODQuMDgyMDMxMjUsInkiOjEwNzN9LHsieCI6MTA4NC4wODIwMzEyNSwieSI6MTA5OH1d" data-look="classic" marker-end="url(#my-svg_stateDiagram-barbEnd)"/><path d="M365.105,478L365.105,482.167C365.105,486.333,365.105,494.667,365.105,503C365.105,511.333,365.105,519.667,365.105,523.833L365.105,528" id="my-svg-edge6" class="edge-thickness-normal edge-pattern-solid transition" style="fill:none;;;fill:none" data-edge="true" data-et="edge" data-id="edge6" data-points="W3sieCI6MzY1LjEwNTQ2ODc1LCJ5Ijo0Nzh9LHsieCI6MzY1LjEwNTQ2ODc1LCJ5Ijo1MDN9LHsieCI6MzY1LjEwNTQ2ODc1LCJ5Ijo1Mjh9XQ==" data-look="classic" marker-end="url(#my-svg_stateDiagram-barbEnd)"/><path d="M269.996,564.772L243.317,569.477C216.638,574.181,163.28,583.591,136.601,597.795C109.922,612,109.922,631,109.922,652C109.922,673,109.922,696,109.922,717C109.922,738,109.922,757,109.922,774C109.922,791,109.922,806,109.922,817.667C109.922,829.333,109.922,837.667,109.922,841.833L109.922,846" id="my-svg-edge7" class="edge-thickness-normal edge-pattern-solid transition" style="fill:none;;;fill:none" data-edge="true" data-et="edge" data-id="edge7" data-points="W3sieCI6MjY5Ljk5NjA5Mzc1LCJ5Ijo1NjQuNzcxOTMxOTcyOTk3NH0seyJ4IjoxMDkuOTIxODc1LCJ5Ijo1OTN9LHsieCI6MTA5LjkyMTg3NSwieSI6NjUwfSx7IngiOjEwOS45MjE4NzUsInkiOjcxOX0seyJ4IjoxMDkuOTIxODc1LCJ5Ijo3NzZ9LHsieCI6MTA5LjkyMTg3NSwieSI6ODIxfSx7IngiOjEwOS45MjE4NzUsInkiOjg0Nn1d" data-look="classic" marker-end="url(#my-svg_stateDiagram-barbEnd)"/><path d="M420,568L431.436,572.167C442.872,576.333,465.745,584.667,477.181,593C488.617,601.333,488.617,609.667,488.617,613.833L488.617,618" id="my-svg-edge8" class="edge-thickness-normal edge-pattern-solid transition" style="fill:none;;;fill:none" data-edge="true" data-et="edge" data-id="edge8" data-points="W3sieCI6NDE5Ljk5OTU2NTk3MjIyMjIzLCJ5Ijo1Njh9LHsieCI6NDg4LjYxNzE4NzUsInkiOjU5M30seyJ4Ijo0ODguNjE3MTg3NSwieSI6NjE4fV0=" data-look="classic" marker-end="url(#my-svg_stateDiagram-barbEnd)"/><path d="M488.617,682L488.617,688.167C488.617,694.333,488.617,706.667,488.617,719C488.617,731.333,488.617,743.667,488.617,749.833L488.617,756" id="my-svg-edge9" class="edge-thickness-normal edge-pattern-solid transition" style="fill:none;;;fill:none" data-edge="true" data-et="edge" data-id="edge9" data-points="W3sieCI6NDg4LjYxNzE4NzUsInkiOjY4Mn0seyJ4Ijo0ODguNjE3MTg3NSwieSI6NzE5fSx7IngiOjQ4OC42MTcxODc1LCJ5Ijo3NTZ9XQ==" data-look="classic" marker-end="url(#my-svg_stateDiagram-barbEnd)"/><path d="M569.619,796L586.494,800.167C603.37,804.333,637.12,812.667,653.996,821C670.871,829.333,670.871,837.667,670.871,841.833L670.871,846" id="my-svg-edge10" class="edge-thickness-normal edge-pattern-solid transition" style="fill:none;;;fill:none" data-edge="true" data-et="edge" data-id="edge10" data-points="W3sieCI6NTY5LjYxODkyMzYxMTExMTEsInkiOjc5Nn0seyJ4Ijo2NzAuODcxMDkzNzUsInkiOjgyMX0seyJ4Ijo2NzAuODcxMDkzNzUsInkiOjg0Nn1d" data-look="classic" marker-end="url(#my-svg_stateDiagram-barbEnd)"/><path d="M656.21,886L650.223,894.167C644.236,902.333,632.263,918.667,626.276,937C620.289,955.333,620.289,975.667,620.289,985.833L620.289,996" id="my-svg-edge11" class="edge-thickness-normal edge-pattern-solid transition" style="fill:none;;;fill:none" data-edge="true" data-et="edge" data-id="edge11" data-points="W3sieCI6NjU2LjIwOTYzNTQxNjY2NjYsInkiOjg4Nn0seyJ4Ijo2MjAuMjg5MDYyNSwieSI6OTM1fSx7IngiOjYyMC4yODkwNjI1LCJ5Ijo5OTZ9XQ==" data-look="classic" marker-end="url(#my-svg_stateDiagram-barbEnd)"/><path d="M615.145,886L592.391,894.167C569.636,902.333,524.127,918.667,489.105,935C454.083,951.333,429.548,967.667,417.281,975.833L405.013,984" id="my-svg-edge12" class="edge-thickness-normal edge-pattern-solid transition" style="fill:none;;;fill:none" data-edge="true" data-et="edge" data-id="edge12" data-points="W3sieCI6NjE1LjE0NTMyMzgyMjQ2MzgsInkiOjg4Nn0seyJ4Ijo0NzguNjE3MTg3NSwieSI6OTM1fSx7IngiOjQwNS4wMTMyMTM3MzQ1Njc5LCJ5Ijo5ODR9XQ==" data-look="classic" marker-end="url(#my-svg_stateDiagram-barbEnd)"/><path d="M714.449,886L732.243,894.167C750.038,902.333,785.626,918.667,803.421,940.333C821.215,962,821.215,989,821.215,1012C821.215,1035,821.215,1054,821.215,1069.667C821.215,1085.333,821.215,1097.667,821.215,1103.833L821.215,1110" id="my-svg-edge13" class="edge-thickness-normal edge-pattern-solid transition" style="fill:none;;;fill:none" data-edge="true" data-et="edge" data-id="edge13" data-points="W3sieCI6NzE0LjQ0ODk5MjMwMDcyNDYsInkiOjg4Nn0seyJ4Ijo4MjEuMjE0ODQzNzUsInkiOjkzNX0seyJ4Ijo4MjEuMjE0ODQzNzUsInkiOjEwMTZ9LHsieCI6ODIxLjIxNDg0Mzc1LCJ5IjoxMDczfSx7IngiOjgyMS4yMTQ4NDM3NSwieSI6MTExMH1d" data-look="classic" marker-end="url(#my-svg_stateDiagram-barbEnd)"/><path d="M335.197,984L329.646,975.833C324.096,967.667,312.995,951.333,307.445,931.667C301.895,912,301.895,889,301.895,870C301.895,851,301.895,836,319.184,824.333C336.473,812.667,371.051,804.333,388.34,800.167L405.629,796" id="my-svg-edge14" class="edge-thickness-normal edge-pattern-solid transition" style="fill:none;;;fill:none" data-edge="true" data-et="edge" data-id="edge14" data-points="W3sieCI6MzM1LjE5Njg1NTcwOTg3NjU2LCJ5Ijo5ODR9LHsieCI6MzAxLjg5NDUzMTI1LCJ5Ijo5MzV9LHsieCI6MzAxLjg5NDUzMTI1LCJ5Ijo4NjZ9LHsieCI6MzAxLjg5NDUzMTI1LCJ5Ijo4MjF9LHsieCI6NDA1LjYyOTM0MDI3Nzc3Nzc3LCJ5Ijo3OTZ9XQ==" data-look="classic" marker-end="url(#my-svg_stateDiagram-barbEnd)"/><path d="M620.289,1036L620.289,1042.167C620.289,1048.333,620.289,1060.667,592.681,1073C565.074,1085.333,509.859,1097.667,482.251,1103.833L454.644,1110" id="my-svg-edge15" class="edge-thickness-normal edge-pattern-solid transition" style="fill:none;;;fill:none" data-edge="true" data-et="edge" data-id="edge15" data-points="W3sieCI6NjIwLjI4OTA2MjUsInkiOjEwMzZ9LHsieCI6NjIwLjI4OTA2MjUsInkiOjEwNzN9LHsieCI6NDU0LjY0MzU3MTgyMDE3NTQ1LCJ5IjoxMTEwfV0=" data-look="classic" marker-end="url(#my-svg_stateDiagram-barbEnd)"/><path d="M109.922,886L109.922,894.167C109.922,902.333,109.922,918.667,109.922,937C109.922,955.333,109.922,975.667,109.922,985.833L109.922,996" id="my-svg-edge16" class="edge-thickness-normal edge-pattern-solid transition" style="fill:none;;;fill:none" data-edge="true" data-et="edge" data-id="edge16" data-points="W3sieCI6MTA5LjkyMTg3NSwieSI6ODg2fSx7IngiOjEwOS45MjE4NzUsInkiOjkzNX0seyJ4IjoxMDkuOTIxODc1LCJ5Ijo5OTZ9XQ==" data-look="classic" marker-end="url(#my-svg_stateDiagram-barbEnd)"/><path d="M109.922,1036L109.922,1042.167C109.922,1048.333,109.922,1060.667,137.529,1073C165.137,1085.333,220.352,1097.667,247.96,1103.833L275.567,1110" id="my-svg-edge17" class="edge-thickness-normal edge-pattern-solid transition" style="fill:none;;;fill:none" data-edge="true" data-et="edge" data-id="edge17" data-points="W3sieCI6MTA5LjkyMTg3NSwieSI6MTAzNn0seyJ4IjoxMDkuOTIxODc1LCJ5IjoxMDczfSx7IngiOjI3NS41NjczNjU2Nzk4MjQ1NSwieSI6MTExMH1d" data-look="classic" marker-end="url(#my-svg_stateDiagram-barbEnd)"/><path d="M1309.488,1150L1309.488,1156.167C1309.488,1162.333,1309.488,1174.667,1251.178,1186.062C1192.868,1197.458,1076.247,1207.916,1017.937,1213.145L959.627,1218.374" id="my-svg-edge18" class="edge-thickness-normal edge-pattern-solid transition" style="fill:none;;;fill:none" data-edge="true" data-et="edge" data-id="edge18" data-points="W3sieCI6MTMwOS40ODgyODEyNSwieSI6MTE1MH0seyJ4IjoxMzA5LjQ4ODI4MTI1LCJ5IjoxMTg3fSx7IngiOjk1OS42MjcwNzk4OTc4MTc4LCJ5IjoxMjE4LjM3NDE4MjY3NDI2ODJ9XQ==" data-look="classic" marker-end="url(#my-svg_stateDiagram-barbEnd)"/><path d="M1084.082,1162L1084.082,1166.167C1084.082,1170.333,1084.082,1178.667,1063.311,1187.89C1042.54,1197.114,1000.998,1207.228,980.227,1212.285L959.456,1217.343" id="my-svg-edge19" class="edge-thickness-normal edge-pattern-solid transition" style="fill:none;;;fill:none" data-edge="true" data-et="edge" data-id="edge19" data-points="W3sieCI6MTA4NC4wODIwMzEyNSwieSI6MTE2Mn0seyJ4IjoxMDg0LjA4MjAzMTI1LCJ5IjoxMTg3fSx7IngiOjk1OS40NTYyMTU5OTUyMTY2LCJ5IjoxMjE3LjM0MjUxNzI2OTUwOTV9XQ==" data-look="classic" marker-end="url(#my-svg_stateDiagram-barbEnd)"/><path d="M821.215,1150L821.215,1156.167C821.215,1162.333,821.215,1174.667,841.986,1185.89C862.757,1197.114,904.299,1207.228,925.07,1212.285L945.841,1217.343" id="my-svg-edge20" class="edge-thickness-normal edge-pattern-solid transition" style="fill:none;;;fill:none" data-edge="true" data-et="edge" data-id="edge20" data-points="W3sieCI6ODIxLjIxNDg0Mzc1LCJ5IjoxMTUwfSx7IngiOjgyMS4yMTQ4NDM3NSwieSI6MTE4N30seyJ4Ijo5NDUuODQwNjU5MDA0NzgzNCwieSI6MTIxNy4zNDI1MTcyNjk1MDk1fV0=" data-look="classic" marker-end="url(#my-svg_stateDiagram-barbEnd)"/><path d="M365.105,1150L365.105,1156.167C365.105,1162.333,365.105,1174.667,461.863,1186.103C558.621,1197.54,752.137,1208.079,848.894,1213.349L945.652,1218.619" id="my-svg-edge21" class="edge-thickness-normal edge-pattern-solid transition" style="fill:none;;;fill:none" data-edge="true" data-et="edge" data-id="edge21" data-points="W3sieCI6MzY1LjEwNTQ2ODc1LCJ5IjoxMTUwfSx7IngiOjM2NS4xMDU0Njg3NSwieSI6MTE4N30seyJ4Ijo5NDUuNjUyMTU5ODQ2NTA3NSwieSI6MTIxOC42MTg5NTQwMjIzOTU5fV0=" data-look="classic" marker-end="url(#my-svg_stateDiagram-barbEnd)"/></g><g class="edgeLabels"><g class="edgeLabel"><g class="label" data-id="edge0" transform="translate(0, 0)"><foreignObject width="0" height="0"><div xmlns="http://www.w3.org/1999/xhtml" class="labelBkg" style="display: table-cell; white-space: nowrap; line-height: 1.5; max-width: 200px; text-align: center;"><span class="edgeLabel"></span></div></foreignObject></g></g><g class="edgeLabel"><g class="label" data-id="edge1" transform="translate(0, 0)"><foreignObject width="0" height="0"><div xmlns="http://www.w3.org/1999/xhtml" class="labelBkg" style="display: table-cell; white-space: nowrap; line-height: 1.5; max-width: 200px; text-align: center;"><span class="edgeLabel"></span></div></foreignObject></g></g><g class="edgeLabel" transform="translate(627.29296875, 275)"><g class="label" data-id="edge2" transform="translate(-100, -24)"><foreignObject width="200" height="48"><div xmlns="http://www.w3.org/1999/xhtml" class="labelBkg" style="display: table; white-space: break-spaces; line-height: 1.5; max-width: 200px; text-align: center; width: 200px;"><span class="edgeLabel"><p>"autores, título e versão conferem"</p></span></div></foreignObject></g></g><g class="edgeLabel" transform="translate(1309.48828125, 650)"><g class="label" data-id="edge3" transform="translate(-100, -24)"><foreignObject width="200" height="48"><div xmlns="http://www.w3.org/1999/xhtml" class="labelBkg" style="display: table; white-space: break-spaces; line-height: 1.5; max-width: 200px; text-align: center; width: 200px;"><span class="edgeLabel"><p>"dados não correspondem ao estudo"</p></span></div></foreignObject></g></g><g class="edgeLabel" transform="translate(365.10546875, 401)"><g class="label" data-id="edge4" transform="translate(-72.25, -12)"><foreignObject width="144.5" height="24"><div xmlns="http://www.w3.org/1999/xhtml" class="labelBkg" style="display: table-cell; white-space: nowrap; line-height: 1.5; max-width: 200px; text-align: center;"><span class="edgeLabel"><p>"critérios atendidos"</p></span></div></foreignObject></g></g><g class="edgeLabel" transform="translate(1084.08203125, 719)"><g class="label" data-id="edge5" transform="translate(-63.3828125, -12)"><foreignObject width="126.765625" height="24"><div xmlns="http://www.w3.org/1999/xhtml" class="labelBkg" style="display: table-cell; white-space: nowrap; line-height: 1.5; max-width: 200px; text-align: center;"><span class="edgeLabel"><p>"motivo explícito"</p></span></div></foreignObject></g></g><g class="edgeLabel"><g class="label" data-id="edge6" transform="translate(0, 0)"><foreignObject width="0" height="0"><div xmlns="http://www.w3.org/1999/xhtml" class="labelBkg" style="display: table-cell; white-space: nowrap; line-height: 1.5; max-width: 200px; text-align: center;"><span class="edgeLabel"></span></div></foreignObject></g></g><g class="edgeLabel"><g class="label" data-id="edge7" transform="translate(0, 0)"><foreignObject width="0" height="0"><div xmlns="http://www.w3.org/1999/xhtml" class="labelBkg" style="display: table-cell; white-space: nowrap; line-height: 1.5; max-width: 200px; text-align: center;"><span class="edgeLabel"></span></div></foreignObject></g></g><g class="edgeLabel"><g class="label" data-id="edge8" transform="translate(0, 0)"><foreignObject width="0" height="0"><div xmlns="http://www.w3.org/1999/xhtml" class="labelBkg" style="display: table-cell; white-space: nowrap; line-height: 1.5; max-width: 200px; text-align: center;"><span class="edgeLabel"></span></div></foreignObject></g></g><g class="edgeLabel"><g class="label" data-id="edge9" transform="translate(0, 0)"><foreignObject width="0" height="0"><div xmlns="http://www.w3.org/1999/xhtml" class="labelBkg" style="display: table-cell; white-space: nowrap; line-height: 1.5; max-width: 200px; text-align: center;"><span class="edgeLabel"></span></div></foreignObject></g></g><g class="edgeLabel"><g class="label" data-id="edge10" transform="translate(0, 0)"><foreignObject width="0" height="0"><div xmlns="http://www.w3.org/1999/xhtml" class="labelBkg" style="display: table-cell; white-space: nowrap; line-height: 1.5; max-width: 200px; text-align: center;"><span class="edgeLabel"></span></div></foreignObject></g></g><g class="edgeLabel"><g class="label" data-id="edge11" transform="translate(0, 0)"><foreignObject width="0" height="0"><div xmlns="http://www.w3.org/1999/xhtml" class="labelBkg" style="display: table-cell; white-space: nowrap; line-height: 1.5; max-width: 200px; text-align: center;"><span class="edgeLabel"></span></div></foreignObject></g></g><g class="edgeLabel"><g class="label" data-id="edge12" transform="translate(0, 0)"><foreignObject width="0" height="0"><div xmlns="http://www.w3.org/1999/xhtml" class="labelBkg" style="display: table-cell; white-space: nowrap; line-height: 1.5; max-width: 200px; text-align: center;"><span class="edgeLabel"></span></div></foreignObject></g></g><g class="edgeLabel"><g class="label" data-id="edge13" transform="translate(0, 0)"><foreignObject width="0" height="0"><div xmlns="http://www.w3.org/1999/xhtml" class="labelBkg" style="display: table-cell; white-space: nowrap; line-height: 1.5; max-width: 200px; text-align: center;"><span class="edgeLabel"></span></div></foreignObject></g></g><g class="edgeLabel"><g class="label" data-id="edge14" transform="translate(0, 0)"><foreignObject width="0" height="0"><div xmlns="http://www.w3.org/1999/xhtml" class="labelBkg" style="display: table-cell; white-space: nowrap; line-height: 1.5; max-width: 200px; text-align: center;"><span class="edgeLabel"></span></div></foreignObject></g></g><g class="edgeLabel"><g class="label" data-id="edge15" transform="translate(0, 0)"><foreignObject width="0" height="0"><div xmlns="http://www.w3.org/1999/xhtml" class="labelBkg" style="display: table-cell; white-space: nowrap; line-height: 1.5; max-width: 200px; text-align: center;"><span class="edgeLabel"></span></div></foreignObject></g></g><g class="edgeLabel" transform="translate(109.921875, 935)"><g class="label" data-id="edge16" transform="translate(-100, -24)"><foreignObject width="200" height="48"><div xmlns="http://www.w3.org/1999/xhtml" class="labelBkg" style="display: table; white-space: break-spaces; line-height: 1.5; max-width: 200px; text-align: center; width: 200px;"><span class="edgeLabel"><p>"não sustenta sozinho uma afirmação decisiva"</p></span></div></foreignObject></g></g><g class="edgeLabel"><g class="label" data-id="edge17" transform="translate(0, 0)"><foreignObject width="0" height="0"><div xmlns="http://www.w3.org/1999/xhtml" class="labelBkg" style="display: table-cell; white-space: nowrap; line-height: 1.5; max-width: 200px; text-align: center;"><span class="edgeLabel"></span></div></foreignObject></g></g><g class="edgeLabel"><g class="label" data-id="edge18" transform="translate(0, 0)"><foreignObject width="0" height="0"><div xmlns="http://www.w3.org/1999/xhtml" class="labelBkg" style="display: table-cell; white-space: nowrap; line-height: 1.5; max-width: 200px; text-align: center;"><span class="edgeLabel"></span></div></foreignObject></g></g><g class="edgeLabel"><g class="label" data-id="edge19" transform="translate(0, 0)"><foreignObject width="0" height="0"><div xmlns="http://www.w3.org/1999/xhtml" class="labelBkg" style="display: table-cell; white-space: nowrap; line-height: 1.5; max-width: 200px; text-align: center;"><span class="edgeLabel"></span></div></foreignObject></g></g><g class="edgeLabel"><g class="label" data-id="edge20" transform="translate(0, 0)"><foreignObject width="0" height="0"><div xmlns="http://www.w3.org/1999/xhtml" class="labelBkg" style="display: table-cell; white-space: nowrap; line-height: 1.5; max-width: 200px; text-align: center;"><span class="edgeLabel"></span></div></foreignObject></g></g><g class="edgeLabel"><g class="label" data-id="edge21" transform="translate(0, 0)"><foreignObject width="0" height="0"><div xmlns="http://www.w3.org/1999/xhtml" class="labelBkg" style="display: table-cell; white-space: nowrap; line-height: 1.5; max-width: 200px; text-align: center;"><span class="edgeLabel"></span></div></foreignObject></g></g></g><g class="nodes"><g class="node  statediagram-state" id="my-svg-state-descoberta-1" data-look="classic" transform="translate(739.99609375, 92)"><rect class="basic label-container" style="" rx="5" ry="5" x="-74.8203125" y="-20" width="149.640625" height="40"/><g class="label" style="" transform="translate(-66.8203125, -12)"><rect/><foreignObject width="133.640625" height="24"><div xmlns="http://www.w3.org/1999/xhtml" style="display: table-cell; white-space: nowrap; line-height: 1.5; max-width: 200px; text-align: center;"><span class="nodeLabel markdown-node-label"><p>Estudo encontrado</p></span></div></foreignObject></g></g><g class="node  statediagram-state" id="my-svg-state-identidade_pendente-3" data-look="classic" transform="translate(739.99609375, 194)"><rect class="basic label-container" style="" rx="5" ry="5" x="-108" y="-32" width="216" height="64"/><g class="label" style="" transform="translate(-100, -24)"><rect/><foreignObject width="200" height="48"><div xmlns="http://www.w3.org/1999/xhtml" style="display: table; white-space: break-spaces; line-height: 1.5; max-width: 200px; text-align: center; width: 200px;"><span class="nodeLabel markdown-node-label"><p>Identidade ainda não confirmada</p></span></div></foreignObject></g></g><g class="node  statediagram-state" id="my-svg-state-identidade_confirmada-5" data-look="classic" transform="translate(627.29296875, 344)"><rect class="basic label-container" style="" rx="5" ry="5" x="-89.2421875" y="-20" width="178.484375" height="40"/><g class="label" style="" transform="translate(-81.2421875, -12)"><rect/><foreignObject width="162.484375" height="24"><div xmlns="http://www.w3.org/1999/xhtml" style="display: table-cell; white-space: nowrap; line-height: 1.5; max-width: 200px; text-align: center;"><span class="nodeLabel markdown-node-label"><p>Identidade confirmada</p></span></div></foreignObject></g></g><g class="node  statediagram-state" id="my-svg-state-rejeitada-18" data-look="classic" transform="translate(1309.48828125, 1130)"><rect class="basic label-container" style="" rx="5" ry="5" x="-67.40625" y="-20" width="134.8125" height="40"/><g class="label" style="" transform="translate(-59.40625, -12)"><rect/><foreignObject width="118.8125" height="24"><div xmlns="http://www.w3.org/1999/xhtml" style="display: table-cell; white-space: nowrap; line-height: 1.5; max-width: 200px; text-align: center;"><span class="nodeLabel markdown-node-label"><p>Estudo rejeitado</p></span></div></foreignObject></g></g><g class="node  statediagram-state" id="my-svg-state-incluida-6" data-look="classic" transform="translate(365.10546875, 458)"><rect class="basic label-container" style="" rx="5" ry="5" x="-80.328125" y="-20" width="160.65625" height="40"/><g class="label" style="" transform="translate(-72.328125, -12)"><rect/><foreignObject width="144.65625" height="24"><div xmlns="http://www.w3.org/1999/xhtml" style="display: table-cell; white-space: nowrap; line-height: 1.5; max-width: 200px; text-align: center;"><span class="nodeLabel markdown-node-label"><p>Incluído na pesquisa</p></span></div></foreignObject></g></g><g class="node  statediagram-state" id="my-svg-state-excluida-19" data-look="classic" transform="translate(1084.08203125, 1130)"><rect class="basic label-container" style="" rx="5" ry="5" x="-108" y="-32" width="216" height="64"/><g class="label" style="" transform="translate(-100, -24)"><rect/><foreignObject width="200" height="48"><div xmlns="http://www.w3.org/1999/xhtml" style="display: table; white-space: break-spaces; line-height: 1.5; max-width: 200px; text-align: center; width: 200px;"><span class="nodeLabel markdown-node-label"><p>Excluído por critério declarado</p></span></div></foreignObject></g></g><g class="node  statediagram-state" id="my-svg-state-conteudo_pendente-8" data-look="classic" transform="translate(365.10546875, 548)"><rect class="basic label-container" style="" rx="5" ry="5" x="-95.109375" y="-20" width="190.21875" height="40"/><g class="label" style="" transform="translate(-87.109375, -12)"><rect/><foreignObject width="174.21875" height="24"><div xmlns="http://www.w3.org/1999/xhtml" style="display: table-cell; white-space: nowrap; line-height: 1.5; max-width: 200px; text-align: center;"><span class="nodeLabel markdown-node-label"><p>Conteúdo ainda não lido</p></span></div></foreignObject></g></g><g class="node  statediagram-state" id="my-svg-state-apenas_resumo-16" data-look="classic" transform="translate(109.921875, 866)"><rect class="basic label-container" style="" rx="5" ry="5" x="-101.921875" y="-20" width="203.84375" height="40"/><g class="label" style="" transform="translate(-93.921875, -12)"><rect/><foreignObject width="187.84375" height="24"><div xmlns="http://www.w3.org/1999/xhtml" style="display: table-cell; white-space: nowrap; line-height: 1.5; max-width: 200px; text-align: center;"><span class="nodeLabel markdown-node-label"><p>Somente o resumo foi lido</p></span></div></foreignObject></g></g><g class="node  statediagram-state" id="my-svg-state-conteudo_verificado-9" data-look="classic" transform="translate(488.6171875, 650)"><rect class="basic label-container" style="" rx="5" ry="5" x="-108" y="-32" width="216" height="64"/><g class="label" style="" transform="translate(-100, -24)"><rect/><foreignObject width="200" height="48"><div xmlns="http://www.w3.org/1999/xhtml" style="display: table; white-space: break-spaces; line-height: 1.5; max-width: 200px; text-align: center; width: 200px;"><span class="nodeLabel markdown-node-label"><p>Conteúdo necessário conferido</p></span></div></foreignObject></g></g><g class="node  statediagram-state" id="my-svg-state-avaliacao_metodologica-14" data-look="classic" transform="translate(488.6171875, 776)"><rect class="basic label-container" style="" rx="5" ry="5" x="-103.34375" y="-20" width="206.6875" height="40"/><g class="label" style="" transform="translate(-95.34375, -12)"><rect/><foreignObject width="190.6875" height="24"><div xmlns="http://www.w3.org/1999/xhtml" style="display: table-cell; white-space: nowrap; line-height: 1.5; max-width: 200px; text-align: center;"><span class="nodeLabel markdown-node-label"><p>Método e limites avaliados</p></span></div></foreignObject></g></g><g class="node  statediagram-state" id="my-svg-state-status_editorial-13" data-look="classic" transform="translate(670.87109375, 866)"><rect class="basic label-container" style="" rx="5" ry="5" x="-107.671875" y="-20" width="215.34375" height="40"/><g class="label" style="" transform="translate(-99.671875, -12)"><rect/><foreignObject width="199.34375" height="24"><div xmlns="http://www.w3.org/1999/xhtml" style="display: table-cell; white-space: nowrap; line-height: 1.5; max-width: 200px; text-align: center;"><span class="nodeLabel markdown-node-label"><p>Situação editorial conferida</p></span></div></foreignObject></g></g><g class="node  statediagram-state" id="my-svg-state-utilizavel_com_limites-15" data-look="classic" transform="translate(620.2890625, 1016)"><rect class="basic label-container" style="" rx="5" ry="5" x="-105.34375" y="-20" width="210.6875" height="40"/><g class="label" style="" transform="translate(-97.34375, -12)"><rect/><foreignObject width="194.6875" height="24"><div xmlns="http://www.w3.org/1999/xhtml" style="display: table-cell; white-space: nowrap; line-height: 1.5; max-width: 200px; text-align: center;"><span class="nodeLabel markdown-node-label"><p>Pode ser usado com limites</p></span></div></foreignObject></g></g><g class="node  statediagram-state" id="my-svg-state-corrigida_reavaliar-14" data-look="classic" transform="translate(356.9453125, 1016)"><rect class="basic label-container" style="" rx="5" ry="5" x="-108" y="-32" width="216" height="64"/><g class="label" style="" transform="translate(-100, -24)"><rect/><foreignObject width="200" height="48"><div xmlns="http://www.w3.org/1999/xhtml" style="display: table; white-space: break-spaces; line-height: 1.5; max-width: 200px; text-align: center; width: 200px;"><span class="nodeLabel markdown-node-label"><p>Correção exige nova avaliação</p></span></div></foreignObject></g></g><g class="node  statediagram-state" id="my-svg-state-retratada_bloqueada-20" data-look="classic" transform="translate(821.21484375, 1130)"><rect class="basic label-container" style="" rx="5" ry="5" x="-104.8671875" y="-20" width="209.734375" height="40"/><g class="label" style="" transform="translate(-96.8671875, -12)"><rect/><foreignObject width="193.734375" height="24"><div xmlns="http://www.w3.org/1999/xhtml" style="display: table-cell; white-space: nowrap; line-height: 1.5; max-width: 200px; text-align: center;"><span class="nodeLabel markdown-node-label"><p>Estudo retirado ou inválido</p></span></div></foreignObject></g></g><g class="node  statediagram-state" id="my-svg-state-mapeada_a_afirmacao-21" data-look="classic" transform="translate(365.10546875, 1130)"><rect class="basic label-container" style="" rx="5" ry="5" x="-106.640625" y="-20" width="213.28125" height="40"/><g class="label" style="" transform="translate(-98.640625, -12)"><rect/><foreignObject width="197.28125" height="24"><div xmlns="http://www.w3.org/1999/xhtml" style="display: table-cell; white-space: nowrap; line-height: 1.5; max-width: 200px; text-align: center;"><span class="nodeLabel markdown-node-label"><p>Ligado à afirmação da peça</p></span></div></foreignObject></g></g><g class="node  statediagram-state" id="my-svg-state-uso_limitado-17" data-look="classic" transform="translate(109.921875, 1016)"><rect class="basic label-container" style="" rx="5" ry="5" x="-89.0234375" y="-20" width="178.046875" height="40"/><g class="label" style="" transform="translate(-81.0234375, -12)"><rect/><foreignObject width="162.046875" height="24"><div xmlns="http://www.w3.org/1999/xhtml" style="display: table-cell; white-space: nowrap; line-height: 1.5; max-width: 200px; text-align: center;"><span class="nodeLabel markdown-node-label"><p>Uso apenas secundário</p></span></div></foreignObject></g></g><g class="node default" id="my-svg-state-root_start-0" data-look="classic" transform="translate(739.99609375, 15)"><circle class="state-start" r="7" width="14" height="14"/></g><g class="node default" id="my-svg-state-root_end-21" data-look="classic" transform="translate(952.6484375, 1219)"><g class="outer-path"><path d="M7 0 C7 0.40517908122283747, 6.964012880168563 0.816513743121899, 6.893654271085456 1.2155372436685123 C6.823295662002349 1.6145607442151257, 6.716427752933756 2.013397210557766, 6.5778483455013586 2.394141003279681 C6.439268938068961 2.7748847960015954, 6.26476736710249 3.149104622578984, 6.062177826491071 3.4999999999999996 C5.859588285879653 3.8508953774210153, 5.622755194947063 4.189128084166967, 5.362311101832846 4.499513267805774 C5.10186700871863 4.809898451444582, 4.809898451444583 5.10186700871863, 4.499513267805775 5.362311101832846 C4.189128084166968 5.622755194947063, 3.8508953774210166 5.859588285879652, 3.500000000000001 6.06217782649107 C3.149104622578985 6.264767367102489, 2.7748847960015963 6.439268938068961, 2.3941410032796817 6.5778483455013586 C2.013397210557767 6.716427752933756, 1.6145607442151264 6.823295662002349, 1.2155372436685128 6.893654271085456 C0.8165137431218992 6.964012880168563, 0.4051790812228379 7, 4.286263797015736e-16 7 C-0.405179081222837 7, -0.8165137431218985 6.964012880168563, -1.2155372436685121 6.893654271085456 C-1.6145607442151257 6.823295662002349, -2.0133972105577667 6.716427752933756, -2.394141003279681 6.5778483455013586 C-2.774884796001595 6.439268938068961, -3.149104622578983 6.26476736710249, -3.4999999999999982 6.062177826491071 C-3.8508953774210135 5.859588285879653, -4.189128084166966 5.6227551949470636, -4.499513267805773 5.362311101832848 C-4.809898451444581 5.101867008718632, -5.101867008718628 4.809898451444586, -5.3623111018328435 4.499513267805779 C-5.622755194947059 4.189128084166971, -5.859588285879649 3.8508953774210206, -6.062177826491068 3.5000000000000053 C-6.264767367102486 3.14910462257899, -6.439268938068958 2.774884796001602, -6.577848345501356 2.394141003279688 C-6.716427752933754 2.0133972105577738, -6.823295662002347 1.614560744215134, -6.893654271085454 1.215537243668521 C-6.9640128801685615 0.816513743121908, -6.999999999999999 0.4051790812228472, -7 1.0183126166254463e-14 C-7.000000000000001 -0.40517908122282686, -6.964012880168565 -0.8165137431218878, -6.893654271085459 -1.215537243668501 C-6.823295662002352 -1.6145607442151142, -6.716427752933759 -2.0133972105577542, -6.577848345501363 -2.394141003279669 C-6.439268938068967 -2.7748847960015834, -6.264767367102496 -3.149104622578972, -6.062177826491078 -3.4999999999999876 C-5.859588285879661 -3.8508953774210033, -5.6227551949470715 -4.1891280841669545, -5.362311101832856 -4.499513267805763 C-5.10186700871864 -4.809898451444571, -4.809898451444594 -5.10186700871862, -4.499513267805787 -5.362311101832836 C-4.189128084166979 -5.622755194947053, -3.850895377421028 -5.859588285879643, -3.5000000000000133 -6.062177826491062 C-3.1491046225789985 -6.264767367102482, -2.774884796001611 -6.439268938068954, -2.3941410032796973 -6.577848345501353 C-2.0133972105577835 -6.716427752933752, -1.6145607442151435 -6.823295662002345, -1.2155372436685306 -6.893654271085453 C-0.8165137431219176 -6.9640128801685615, -0.40517908122285695 -6.999999999999999, -1.9937625952807352e-14 -7 C0.4051790812228171 -7.000000000000001, 0.8165137431218781 -6.964012880168565, 1.2155372436684913 -6.89365427108546 C1.6145607442151044 -6.823295662002354, 2.013397210557745 -6.716427752933763, 2.3941410032796595 -6.5778483455013665 C2.774884796001574 -6.43926893806897, 3.149104622578963 -6.2647673671025, 3.499999999999979 -6.062177826491083 C3.8508953774209953 -5.859588285879665, 4.189128084166947 -5.622755194947077, 4.499513267805756 -5.362311101832862 C4.809898451444564 -5.1018670087186475, 5.101867008718613 -4.809898451444602, 5.362311101832829 -4.499513267805796 C5.622755194947046 -4.189128084166989, 5.859588285879637 -3.8508953774210393, 6.062177826491056 -3.500000000000025 C6.2647673671024755 -3.1491046225790105, 6.439268938068949 -2.774884796001623, 6.577848345501348 -2.3941410032797092 C6.716427752933747 -2.0133972105577955, 6.823295662002342 -1.6145607442151562, 6.893654271085451 -1.2155372436685434 C6.96401288016856 -0.8165137431219307, 6.982275711847575 -0.2025895406114567, 7 -3.2800750208310675e-14 C7.017724288152425 0.2025895406113911, 7.017724288152424 -0.2025895406114242, 7 0" stroke="none" stroke-width="0" fill="#ECECFF" style=""/><path d="M7 0 C7 0.40517908122283747, 6.964012880168563 0.816513743121899, 6.893654271085456 1.2155372436685123 C6.823295662002349 1.6145607442151257, 6.716427752933756 2.013397210557766, 6.5778483455013586 2.394141003279681 C6.439268938068961 2.7748847960015954, 6.26476736710249 3.149104622578984, 6.062177826491071 3.4999999999999996 C5.859588285879653 3.8508953774210153, 5.622755194947063 4.189128084166967, 5.362311101832846 4.499513267805774 C5.10186700871863 4.809898451444582, 4.809898451444583 5.10186700871863, 4.499513267805775 5.362311101832846 C4.189128084166968 5.622755194947063, 3.8508953774210166 5.859588285879652, 3.500000000000001 6.06217782649107 C3.149104622578985 6.264767367102489, 2.7748847960015963 6.439268938068961, 2.3941410032796817 6.5778483455013586 C2.013397210557767 6.716427752933756, 1.6145607442151264 6.823295662002349, 1.2155372436685128 6.893654271085456 C0.8165137431218992 6.964012880168563, 0.4051790812228379 7, 4.286263797015736e-16 7 C-0.405179081222837 7, -0.8165137431218985 6.964012880168563, -1.2155372436685121 6.893654271085456 C-1.6145607442151257 6.823295662002349, -2.0133972105577667 6.716427752933756, -2.394141003279681 6.5778483455013586 C-2.774884796001595 6.439268938068961, -3.149104622578983 6.26476736710249, -3.4999999999999982 6.062177826491071 C-3.8508953774210135 5.859588285879653, -4.189128084166966 5.6227551949470636, -4.499513267805773 5.362311101832848 C-4.809898451444581 5.101867008718632, -5.101867008718628 4.809898451444586, -5.3623111018328435 4.499513267805779 C-5.622755194947059 4.189128084166971, -5.859588285879649 3.8508953774210206, -6.062177826491068 3.5000000000000053 C-6.264767367102486 3.14910462257899, -6.439268938068958 2.774884796001602, -6.577848345501356 2.394141003279688 C-6.716427752933754 2.0133972105577738, -6.823295662002347 1.614560744215134, -6.893654271085454 1.215537243668521 C-6.9640128801685615 0.816513743121908, -6.999999999999999 0.4051790812228472, -7 1.0183126166254463e-14 C-7.000000000000001 -0.40517908122282686, -6.964012880168565 -0.8165137431218878, -6.893654271085459 -1.215537243668501 C-6.823295662002352 -1.6145607442151142, -6.716427752933759 -2.0133972105577542, -6.577848345501363 -2.394141003279669 C-6.439268938068967 -2.7748847960015834, -6.264767367102496 -3.149104622578972, -6.062177826491078 -3.4999999999999876 C-5.859588285879661 -3.8508953774210033, -5.6227551949470715 -4.1891280841669545, -5.362311101832856 -4.499513267805763 C-5.10186700871864 -4.809898451444571, -4.809898451444594 -5.10186700871862, -4.499513267805787 -5.362311101832836 C-4.189128084166979 -5.622755194947053, -3.850895377421028 -5.859588285879643, -3.5000000000000133 -6.062177826491062 C-3.1491046225789985 -6.264767367102482, -2.774884796001611 -6.439268938068954, -2.3941410032796973 -6.577848345501353 C-2.0133972105577835 -6.716427752933752, -1.6145607442151435 -6.823295662002345, -1.2155372436685306 -6.893654271085453 C-0.8165137431219176 -6.9640128801685615, -0.40517908122285695 -6.999999999999999, -1.9937625952807352e-14 -7 C0.4051790812228171 -7.000000000000001, 0.8165137431218781 -6.964012880168565, 1.2155372436684913 -6.89365427108546 C1.6145607442151044 -6.823295662002354, 2.013397210557745 -6.716427752933763, 2.3941410032796595 -6.5778483455013665 C2.774884796001574 -6.43926893806897, 3.149104622578963 -6.2647673671025, 3.499999999999979 -6.062177826491083 C3.8508953774209953 -5.859588285879665, 4.189128084166947 -5.622755194947077, 4.499513267805756 -5.362311101832862 C4.809898451444564 -5.1018670087186475, 5.101867008718613 -4.809898451444602, 5.362311101832829 -4.499513267805796 C5.622755194947046 -4.189128084166989, 5.859588285879637 -3.8508953774210393, 6.062177826491056 -3.500000000000025 C6.2647673671024755 -3.1491046225790105, 6.439268938068949 -2.774884796001623, 6.577848345501348 -2.3941410032797092 C6.716427752933747 -2.0133972105577955, 6.823295662002342 -1.6145607442151562, 6.893654271085451 -1.2155372436685434 C6.96401288016856 -0.8165137431219307, 6.982275711847575 -0.2025895406114567, 7 -3.2800750208310675e-14 C7.017724288152425 0.2025895406113911, 7.017724288152424 -0.2025895406114242, 7 0" stroke="#333333" stroke-width="2" fill="none" stroke-dasharray="0 0" style=""/><g><path d="M2.5 0 C2.5 0.14470681472244193, 2.487147457203058 0.29161205111496386, 2.46201938253052 0.4341204441673258 C2.436891307857982 0.5766288372196877, 2.3987241974763416 0.7190704323420595, 2.3492315519647713 0.8550503583141718 C2.299738906453201 0.991030284286284, 2.2374169168223177 1.124680222349637, 2.165063509461097 1.2499999999999998 C2.092710102099876 1.3753197776503625, 2.0081268553382365 1.496117172916774, 1.915111107797445 1.6069690242163481 C1.8220953602566536 1.7178208755159223, 1.7178208755159226 1.8220953602566536, 1.6069690242163484 1.915111107797445 C1.4961171729167742 2.0081268553382365, 1.375319777650363 2.0927101020998755, 1.2500000000000002 2.1650635094610964 C1.1246802223496375 2.2374169168223172, 0.9910302842862845 2.2997389064532, 0.8550503583141721 2.349231551964771 C0.7190704323420597 2.3987241974763416, 0.576628837219688 2.436891307857982, 0.43412044416732604 2.46201938253052 C0.291612051114964 2.487147457203058, 0.14470681472244212 2.5, 1.5308084989341916e-16 2.5 C-0.1447068147224418 2.5, -0.2916120511149638 2.487147457203058, -0.43412044416732576 2.46201938253052 C-0.5766288372196877 2.436891307857982, -0.7190704323420595 2.3987241974763416, -0.8550503583141718 2.3492315519647713 C-0.991030284286284 2.299738906453201, -1.124680222349637 2.2374169168223177, -1.2499999999999996 2.165063509461097 C-1.375319777650362 2.092710102099876, -1.4961171729167733 2.008126855338237, -1.6069690242163475 1.9151111077974459 C-1.7178208755159217 1.8220953602566548, -1.822095360256653 1.7178208755159234, -1.9151111077974443 1.6069690242163495 C-2.0081268553382357 1.4961171729167755, -2.0927101020998746 1.3753197776503645, -2.1650635094610955 1.250000000000002 C-2.2374169168223164 1.1246802223496395, -2.2997389064531992 0.9910302842862865, -2.34923155196477 0.8550503583141743 C-2.3987241974763407 0.7190704323420621, -2.436891307857981 0.5766288372196907, -2.4620193825305194 0.434120444167329 C-2.487147457203058 0.29161205111496724, -2.5 0.14470681472244545, -2.5 3.636830773662308e-15 C-2.5 -0.14470681472243818, -2.4871474572030587 -0.2916120511149599, -2.4620193825305208 -0.4341204441673218 C-2.436891307857983 -0.5766288372196837, -2.398724197476343 -0.7190704323420553, -2.3492315519647726 -0.8550503583141675 C-2.2997389064532023 -0.9910302842862798, -2.23741691682232 -1.1246802223496328, -2.165063509461099 -1.2499999999999956 C-2.092710102099878 -1.3753197776503583, -2.00812685533824 -1.4961171729167695, -1.9151111077974488 -1.606969024216344 C-1.8220953602566576 -1.7178208755159183, -1.7178208755159263 -1.82209536025665, -1.6069690242163523 -1.9151111077974416 C-1.4961171729167784 -2.0081268553382334, -1.3753197776503672 -2.0927101020998724, -1.2500000000000047 -2.1650635094610937 C-1.1246802223496422 -2.237416916822315, -0.9910302842862897 -2.299738906453198, -0.8550503583141776 -2.3492315519647686 C-0.7190704323420656 -2.3987241974763394, -0.5766288372196942 -2.4368913078579806, -0.43412044416733236 -2.462019382530519 C-0.29161205111497057 -2.4871474572030574, -0.1447068147224489 -2.4999999999999996, -7.120580697431198e-15 -2.5 C0.14470681472243463 -2.5000000000000004, 0.29161205111495647 -2.487147457203059, 0.4341204441673183 -2.4620193825305217 C0.5766288372196802 -2.436891307857984, 0.7190704323420518 -2.3987241974763442, 0.8550503583141642 -2.349231551964774 C0.9910302842862766 -2.2997389064532037, 1.1246802223496295 -2.2374169168223212, 1.2499999999999925 -2.165063509461101 C1.3753197776503554 -2.0927101020998804, 1.4961171729167668 -2.008126855338242, 1.6069690242163412 -1.915111107797451 C1.7178208755159157 -1.82209536025666, 1.8220953602566472 -1.7178208755159294, 1.915111107797439 -1.6069690242163557 C2.0081268553382308 -1.496117172916782, 2.09271010209987 -1.3753197776503712, 2.1650635094610915 -1.2500000000000089 C2.237416916822313 -1.1246802223496466, 2.299738906453196 -0.9910302842862939, 2.3492315519647673 -0.855050358314182 C2.3987241974763385 -0.71907043234207, 2.4368913078579792 -0.5766288372196986, 2.462019382530518 -0.4341204441673369 C2.487147457203057 -0.29161205111497523, 2.4936698970884197 -0.07235340736123454, 2.5 -1.1714553645825241e-14 C2.5063301029115803 0.07235340736121111, 2.50633010291158 -0.07235340736122292, 2.5 0" stroke="none" stroke-width="0" fill="#9370DB" style=""/><path d="M2.5 0 C2.5 0.14470681472244193, 2.487147457203058 0.29161205111496386, 2.46201938253052 0.4341204441673258 C2.436891307857982 0.5766288372196877, 2.3987241974763416 0.7190704323420595, 2.3492315519647713 0.8550503583141718 C2.299738906453201 0.991030284286284, 2.2374169168223177 1.124680222349637, 2.165063509461097 1.2499999999999998 C2.092710102099876 1.3753197776503625, 2.0081268553382365 1.496117172916774, 1.915111107797445 1.6069690242163481 C1.8220953602566536 1.7178208755159223, 1.7178208755159226 1.8220953602566536, 1.6069690242163484 1.915111107797445 C1.4961171729167742 2.0081268553382365, 1.375319777650363 2.0927101020998755, 1.2500000000000002 2.1650635094610964 C1.1246802223496375 2.2374169168223172, 0.9910302842862845 2.2997389064532, 0.8550503583141721 2.349231551964771 C0.7190704323420597 2.3987241974763416, 0.576628837219688 2.436891307857982, 0.43412044416732604 2.46201938253052 C0.291612051114964 2.487147457203058, 0.14470681472244212 2.5, 1.5308084989341916e-16 2.5 C-0.1447068147224418 2.5, -0.2916120511149638 2.487147457203058, -0.43412044416732576 2.46201938253052 C-0.5766288372196877 2.436891307857982, -0.7190704323420595 2.3987241974763416, -0.8550503583141718 2.3492315519647713 C-0.991030284286284 2.299738906453201, -1.124680222349637 2.2374169168223177, -1.2499999999999996 2.165063509461097 C-1.375319777650362 2.092710102099876, -1.4961171729167733 2.008126855338237, -1.6069690242163475 1.9151111077974459 C-1.7178208755159217 1.8220953602566548, -1.822095360256653 1.7178208755159234, -1.9151111077974443 1.6069690242163495 C-2.0081268553382357 1.4961171729167755, -2.0927101020998746 1.3753197776503645, -2.1650635094610955 1.250000000000002 C-2.2374169168223164 1.1246802223496395, -2.2997389064531992 0.9910302842862865, -2.34923155196477 0.8550503583141743 C-2.3987241974763407 0.7190704323420621, -2.436891307857981 0.5766288372196907, -2.4620193825305194 0.434120444167329 C-2.487147457203058 0.29161205111496724, -2.5 0.14470681472244545, -2.5 3.636830773662308e-15 C-2.5 -0.14470681472243818, -2.4871474572030587 -0.2916120511149599, -2.4620193825305208 -0.4341204441673218 C-2.436891307857983 -0.5766288372196837, -2.398724197476343 -0.7190704323420553, -2.3492315519647726 -0.8550503583141675 C-2.2997389064532023 -0.9910302842862798, -2.23741691682232 -1.1246802223496328, -2.165063509461099 -1.2499999999999956 C-2.092710102099878 -1.3753197776503583, -2.00812685533824 -1.4961171729167695, -1.9151111077974488 -1.606969024216344 C-1.8220953602566576 -1.7178208755159183, -1.7178208755159263 -1.82209536025665, -1.6069690242163523 -1.9151111077974416 C-1.4961171729167784 -2.0081268553382334, -1.3753197776503672 -2.0927101020998724, -1.2500000000000047 -2.1650635094610937 C-1.1246802223496422 -2.237416916822315, -0.9910302842862897 -2.299738906453198, -0.8550503583141776 -2.3492315519647686 C-0.7190704323420656 -2.3987241974763394, -0.5766288372196942 -2.4368913078579806, -0.43412044416733236 -2.462019382530519 C-0.29161205111497057 -2.4871474572030574, -0.1447068147224489 -2.4999999999999996, -7.120580697431198e-15 -2.5 C0.14470681472243463 -2.5000000000000004, 0.29161205111495647 -2.487147457203059, 0.4341204441673183 -2.4620193825305217 C0.5766288372196802 -2.436891307857984, 0.7190704323420518 -2.3987241974763442, 0.8550503583141642 -2.349231551964774 C0.9910302842862766 -2.2997389064532037, 1.1246802223496295 -2.2374169168223212, 1.2499999999999925 -2.165063509461101 C1.3753197776503554 -2.0927101020998804, 1.4961171729167668 -2.008126855338242, 1.6069690242163412 -1.915111107797451 C1.7178208755159157 -1.82209536025666, 1.8220953602566472 -1.7178208755159294, 1.915111107797439 -1.6069690242163557 C2.0081268553382308 -1.496117172916782, 2.09271010209987 -1.3753197776503712, 2.1650635094610915 -1.2500000000000089 C2.237416916822313 -1.1246802223496466, 2.299738906453196 -0.9910302842862939, 2.3492315519647673 -0.855050358314182 C2.3987241974763385 -0.71907043234207, 2.4368913078579792 -0.5766288372196986, 2.462019382530518 -0.4341204441673369 C2.487147457203057 -0.29161205111497523, 2.4936698970884197 -0.07235340736123454, 2.5 -1.1714553645825241e-14 C2.5063301029115803 0.07235340736121111, 2.50633010291158 -0.07235340736122292, 2.5 0" stroke="#9370DB" stroke-width="2" fill="none" stroke-dasharray="0 0" style=""/></g></g></g></g></g></g><defs><filter id="my-svg-drop-shadow" height="130%" width="130%"><feDropShadow dx="4" dy="4" stdDeviation="0" flood-opacity="0.06" flood-color="#000000"/></filter></defs><defs><filter id="my-svg-drop-shadow-small" height="150%" width="150%"><feDropShadow dx="2" dy="2" stdDeviation="0" flood-opacity="0.06" flood-color="#000000"/></filter></defs></svg>